<?xml version="1.0" standalone="no"?>
<!DOCTYPE svg PUBLIC "-//W3C//DTD SVG 20010904//EN"
 "http://www.w3.org/TR/2001/REC-SVG-20010904/DTD/svg10.dtd">
<svg version="1.0" xmlns="http://www.w3.org/2000/svg"
 width="260.000000pt" height="260.000000pt" viewBox="0 0 260.000000 260.000000"
 preserveAspectRatio="xMidYMid meet">
<metadata>
Created by potrace 1.14, written by Peter Selinger 2001-2017
</metadata>
<g transform="translate(0.000000,260.000000) scale(0.100000,-0.100000)"
fill="#000000" stroke="none">
<path d="M102 1561 l3 -916 24 -70 c38 -113 80 -185 153 -257 113 -113 274
-182 453 -194 l80 -5 -1 323 c0 178 1 326 3 330 2 4 30 -32 63 -80 123 -183
290 -321 500 -415 123 -55 346 -113 510 -132 30 -3 71 -8 90 -10 107 -13 507
-22 517 -11 8 8 8 1739 0 1803 -20 148 -121 300 -273 409 -114 82 -244 128
-388 137 l-39 2 0 -337 c0 -186 -1 -338 -3 -338 -1 0 -33 31 -70 68 -170 169
-378 311 -598 408 -44 19 -90 39 -101 44 -95 43 -388 119 -517 134 -27 3 -69
9 -95 12 -27 3 -108 7 -181 9 l-133 3 3 -917z"/>
</g>
</svg>
